<svg xmlns="http://www.w3.org/2000/svg" viewBox="0 0 48 48" fill="none">
  <defs>
    <linearGradient id="instagramGrad" x1="4" y1="4" x2="44" y2="44" gradientUnits="userSpaceOnUse">
      <stop offset="0" stop-color="#F58529"/>
      <stop offset="0.35" stop-color="#DD2A7B"/>
      <stop offset="0.7" stop-color="#8134AF"/>
      <stop offset="1" stop-color="#515BD4"/>
    </linearGradient>
  </defs>
  <path fill="url(#instagramGrad)" fill-rule="evenodd" clip-rule="evenodd" d="M12.5 6h23A6.5 6.5 0 0 1 42 12.5v23a6.5 6.5 0 0 1-6.5 6.5h-23A6.5 6.5 0 0 1 6 35.5v-23A6.5 6.5 0 0 1 12.5 6Zm11.5 8a10 10 0 1 0 0 20 10 10 0 0 0 0-20Zm0 3.5a6.5 6.5 0 1 1 0 13 6.5 6.5 0 0 1 0-13Zm13.5-2.25a2 2 0 1 1-4 0 2 2 0 0 1 4 0Z"/>
</svg>